<?xml version="1.0" encoding="utf-8"?>
<!-- Generator: Adobe Illustrator 24.2.3, SVG Export Plug-In . SVG Version: 6.00 Build 0)  -->
<svg version="1.1" id="Layer_1" xmlns="http://www.w3.org/2000/svg" xmlns:xlink="http://www.w3.org/1999/xlink" x="0px" y="0px"
	 viewBox="0 0 22 16" style="enable-background:new 0 0 22 16;" xml:space="preserve">
<style type="text/css">
	.st0{fill:#F6FD5F;}
</style>
<path class="st0" d="M13,5.9V4.2c0.6-0.2,1.1-0.4,1.7-0.5c0.6-0.1,1.2-0.2,1.8-0.2c0.4,0,0.9,0,1.3,0.1c0.4,0.1,0.8,0.1,1.2,0.2v1.6
	c-0.4-0.2-0.8-0.3-1.2-0.3C17.4,5,17,5,16.5,5c-0.6,0-1.2,0.1-1.8,0.2S13.5,5.6,13,5.9z M13,11.4V9.7c0.6-0.2,1.1-0.4,1.7-0.5
	S15.9,9,16.5,9c0.4,0,0.9,0,1.3,0.1c0.4,0.1,0.8,0.1,1.2,0.2v1.6c-0.4-0.1-0.8-0.3-1.2-0.3s-0.8-0.1-1.3-0.1c-0.6,0-1.2,0.1-1.8,0.2
	C14.1,10.9,13.5,11.1,13,11.4z M13,8.7V7c0.6-0.2,1.1-0.4,1.7-0.5s1.2-0.2,1.8-0.2c0.4,0,0.9,0,1.3,0.1c0.4,0.1,0.8,0.2,1.2,0.2v1.6
	c-0.4-0.1-0.8-0.3-1.2-0.3c-0.4-0.1-0.8-0.1-1.3-0.1c-0.6,0-1.2,0.1-1.8,0.2S13.5,8.4,13,8.7z M5.5,12c0.8,0,1.5,0.1,2.3,0.3
	c0.7,0.2,1.5,0.4,2.2,0.8V3.2C9.3,2.8,8.6,2.5,7.8,2.3C7.1,2.1,6.3,2,5.5,2C4.9,2,4.3,2.1,3.7,2.2C3.1,2.3,2.5,2.5,2,2.7v9.9
	c0.6-0.2,1.2-0.4,1.7-0.4C4.3,12.1,4.9,12,5.5,12z M12,13.1c0.7-0.4,1.5-0.6,2.2-0.8c0.7-0.2,1.5-0.3,2.3-0.3c0.6,0,1.2,0.1,1.8,0.2
	c0.6,0.1,1.2,0.2,1.7,0.4V2.7c-0.5-0.2-1.1-0.4-1.7-0.5C17.7,2.1,17.1,2,16.5,2c-0.8,0-1.6,0.1-2.3,0.3c-0.8,0.2-1.5,0.5-2.2,0.9
	V13.1z M11,16c-0.8-0.6-1.7-1.1-2.6-1.5C7.5,14.2,6.5,14,5.5,14c-0.7,0-1.4,0.1-2.1,0.3c-0.7,0.2-1.3,0.4-1.9,0.8
	c-0.4,0.2-0.7,0.2-1,0C0.2,14.8,0,14.5,0,14.2V2.1c0-0.2,0-0.4,0.1-0.5s0.2-0.3,0.4-0.4C1.3,0.8,2.1,0.5,3,0.3S4.6,0,5.5,0
	c1,0,1.9,0.1,2.8,0.4C9.3,0.6,10.2,1,11,1.5c0.9-0.5,1.7-0.9,2.7-1.1S15.5,0,16.5,0c0.9,0,1.7,0.1,2.6,0.3c0.8,0.2,1.6,0.5,2.4,0.9
	c0.2,0.1,0.3,0.2,0.4,0.4S22,1.9,22,2.1v12.1c0,0.4-0.2,0.7-0.5,0.9c-0.3,0.2-0.7,0.2-1,0c-0.6-0.3-1.3-0.6-1.9-0.8
	c-0.7-0.2-1.4-0.3-2.1-0.3c-1,0-2,0.2-2.9,0.5C12.7,14.9,11.8,15.4,11,16z"/>
</svg>
