<?xml version="1.0" encoding="utf-8"?>
<!-- Generator: Adobe Illustrator 24.0.2, SVG Export Plug-In . SVG Version: 6.00 Build 0)  -->
<svg version="1.1" id="Layer_1" xmlns="http://www.w3.org/2000/svg" xmlns:xlink="http://www.w3.org/1999/xlink" x="0px" y="0px"
	 viewBox="0 0 576 105.4" style="enable-background:new 0 0 576 105.4;" xml:space="preserve">
<style type="text/css">
	.st0{fill:#E0DCE9;}
</style>
<path class="st0" d="M380.7,43.5c-2.1,2.3-5.1,3.5-8.2,3.3c-6.5,0-11.5-4.6-11.5-11.6c0.1-6.5,5.3-11.6,11.8-11.6
	c2.8,0,5.5,1.1,7.7,3l-1.4,2.5c-1.7-1.8-4.1-2.8-6.5-2.7c-4.8,0-8.4,3.5-8.4,8.8s3.5,8.8,8.4,8.8c2.5,0.1,5-0.9,6.7-2.7L380.7,43.5z
	"/>
<path class="st0" d="M390.4,46.7c-4.4-0.1-8-3.7-7.9-8.2c0.1-4.4,3.7-8,8.2-7.9c4.4,0.1,8,3.7,7.9,8.1c0.1,4.3-3.3,7.9-7.7,8
	C390.8,46.8,390.6,46.8,390.4,46.7z M390.4,33.2c-3.1,0-5,2.4-5,5.4s1.9,5.5,5,5.5c3.1,0,5-2.4,5-5.5S393.5,33.2,390.4,33.2z"/>
<path class="st0" d="M415.3,46.4h-3.2v-8.6c0-2.6-0.5-4.6-3.2-4.6s-4,2.4-4,5.4v7.8h-3.1V30.9h3.1v2.4h0.1c0.9-1.7,2.8-2.8,4.7-2.7
	c4.4,0,5.5,2.9,5.5,6.6L415.3,46.4z"/>
<path class="st0" d="M428.3,45.4c-1.2,0.9-2.7,1.4-4.3,1.4c-2.3,0.1-4.5-0.9-6-2.8l1.5-1.8c1.1,1.3,2.8,2.1,4.6,2.2
	c1.4,0,3-0.5,3-2.2s-2.4-2.2-3.5-2.6c-0.7-0.2-1.4-0.5-2.1-0.8c-1.5-0.6-2.5-2.1-2.4-3.7c0-2.9,2.5-4.4,5.2-4.4c2-0.1,3.9,0.6,5.3,2
	l-1.3,1.9c-1-1-2.4-1.6-3.9-1.7c-1.5,0-2.5,0.6-2.5,1.9s1.5,1.8,3,2.3c0.8,0.3,1.4,0.5,2.1,0.7c0.7,0.3,1.3,0.6,1.8,1.1
	c0.8,0.7,1.2,1.8,1.2,2.9C429.9,43.2,429.3,44.5,428.3,45.4z"/>
<path class="st0" d="M446.9,39.4H435c0.2,3.1,2.1,4.9,5,4.9c1.8,0,3.6-0.7,5.1-1.8l1.3,1.8c-0.2,0.2-2.2,2.4-6.8,2.4
	s-7.7-3.2-7.7-8.1c-0.2-4.2,3.1-7.8,7.3-8c0.2,0,0.4,0,0.5,0c3.9-0.2,7.2,2.9,7.3,6.8c0,0.2,0,0.4,0,0.6
	C447,38.6,446.9,39.4,446.9,39.4z M444.1,37.3c0-2.5-2-4.4-4.5-4.4c-2.5,0-4.5,2-4.5,4.4H444.1z"/>
<path class="st0" d="M451.8,27.8c-1.1,0-1.9-0.9-1.8-2c0-1.1,0.9-1.9,2-1.8c1,0,1.8,0.9,1.8,1.9c0,1.1-0.8,1.9-1.9,1.9
	C451.9,27.8,451.9,27.8,451.8,27.8z M453.4,46.4h-3.1V30.9h3.1V46.4z"/>
<path class="st0" d="M461.1,46.4H458V23.9h3.1V46.4z"/>
<path class="st0" d="M487,46.4h-3v-2.5h-0.1c-1.2,1.8-3.3,2.9-5.4,2.8c-4.6,0-7.5-3.5-7.5-8.1s2.9-8,7.5-8c2.1-0.1,4.2,0.9,5.4,2.7
	h0.1v-9.4h3.1L487,46.4z M479,33.2c-3.1,0-4.9,2.3-4.9,5.4s1.8,5.5,4.9,5.5s4.9-2.4,4.9-5.5S482.1,33.2,479,33.2L479,33.2z"/>
<path class="st0" d="M505.4,39.4h-11.9c0.2,3.1,2.1,4.9,5,4.9c1.9,0,3.6-0.7,5.1-1.8l1.3,1.8c-0.2,0.2-2.2,2.4-6.8,2.4
	s-7.7-3.2-7.7-8.1c-0.2-4.2,3.1-7.8,7.3-8c0.2,0,0.4,0,0.5,0c3.9-0.2,7.2,2.9,7.3,6.8c0,0.2,0,0.4,0,0.6
	C505.5,38.5,505.5,38.9,505.4,39.4z M502.6,37.3c0-2.5-2-4.4-4.5-4.4c-2.5,0-4.5,2-4.5,4.4H502.6z"/>
<path class="st0" d="M517.4,45.4c-1.2,0.9-2.8,1.4-4.3,1.4c-2.3,0.1-4.5-0.9-6-2.8l1.5-1.8c1.1,1.3,2.8,2.1,4.6,2.2
	c1.4,0,3-0.5,3-2.2s-2.4-2.2-3.5-2.6c-0.7-0.2-1.4-0.5-2.1-0.8c-1.5-0.6-2.5-2.1-2.4-3.7c0-2.9,2.5-4.4,5.2-4.4c2-0.1,3.9,0.6,5.3,2
	l-1.3,1.9c-1-1-2.4-1.6-3.9-1.7c-1.5,0-2.5,0.6-2.5,1.9s1.5,1.8,3,2.3c0.8,0.3,1.4,0.5,2.1,0.7c0.7,0.3,1.3,0.6,1.8,1.1
	c0.8,0.7,1.2,1.8,1.2,2.9C519.1,43.2,518.5,44.5,517.4,45.4z"/>
<path class="st0" d="M540.6,46.4h-3v-2c-1.2,1.5-3,2.3-4.9,2.3c-2.9,0-5.3-1.8-5.3-4.8s2.5-4.5,6-4.7l4.1-0.2v-0.6
	c0-2.3-1.6-3.5-3.8-3.5c-1.6,0-3.2,0.5-4.7,1.3l-0.9-2.1c1.8-1,3.8-1.5,5.8-1.6c2.6,0,4.1,0.7,5.1,1.8s1.7,2.4,1.7,5L540.6,46.4z
	 M537.5,38.9l-3.6,0.2c-2.5,0.1-3.5,1.2-3.5,2.7s1.1,2.7,3.2,2.7c1.6,0,3.1-0.9,3.9-2.2V38.9z"/>
<path class="st0" d="M553,33.8h-0.1c-0.5-0.2-1.1-0.3-1.7-0.3c-1,0-1.9,0.5-2.5,1.3c-0.7,1.2-1,2.5-1,3.9v7.7h-3.1V30.9h3.1v2.4h0.1
	c0.6-1.6,2.1-2.7,3.8-2.7c0.6,0,1.1,0.1,1.6,0.3L553,33.8z"/>
<path class="st0" d="M563,46.2c-0.9,0.3-1.9,0.5-2.8,0.5c-1.3,0.1-2.6-0.5-3.3-1.6c-0.7-1-0.8-2.2-0.8-4.6v-7.1h-2.3v-2.5h2.3v-4.6
	h3.1v4.6h3.7v2.5h-3.7v7c-0.1,1,0,1.9,0.4,2.8c0.3,0.6,1,0.9,1.6,0.8c0.6,0,1.1-0.1,1.6-0.4L563,46.2z"/>
<path class="st0" d="M574.4,45.4c-1.2,0.9-2.8,1.4-4.3,1.4c-2.3,0.1-4.5-1-6-2.8l1.5-1.8c1.1,1.3,2.8,2.1,4.6,2.2c1.4,0,3-0.5,3-2.2
	s-2.4-2.2-3.5-2.6c-0.7-0.2-1.4-0.5-2.1-0.8c-1.5-0.6-2.5-2.1-2.4-3.7c0-2.9,2.5-4.4,5.2-4.4c2-0.1,3.9,0.6,5.3,2l-1.3,1.9
	c-1-1-2.4-1.6-3.9-1.7c-1.5,0-2.5,0.6-2.5,1.9s1.5,1.8,3,2.3c0.8,0.3,1.4,0.5,2.1,0.7c0.7,0.3,1.3,0.6,1.8,1.1
	c0.8,0.7,1.3,1.8,1.2,2.9C576.1,43.2,575.5,44.5,574.4,45.4z"/>
<path class="st0" d="M376.9,83h-3v-2.5h-0.1c-1.2,1.8-3.3,2.9-5.4,2.8c-4.6,0-7.5-3.5-7.5-8.1s2.9-8,7.5-8c2.1-0.1,4.2,0.9,5.4,2.7
	h0.1v-9.4h3.1L376.9,83z M369,69.8c-3.1,0-4.9,2.3-4.9,5.4s1.8,5.5,4.9,5.5c3.1,0,4.9-2.4,4.9-5.5S372.1,69.8,369,69.8z"/>
<path class="st0" d="M394.5,83h-3v-2.2c-1,1.7-2.8,2.6-4.8,2.6c-1.6,0.1-3.2-0.5-4.3-1.8c-0.8-1-1.1-2.6-1.1-4.8v-9.3h3.1v9.1
	c0,2.1,0.5,4.1,3.2,4.1c2.8,0,3.8-2.3,3.8-4.9v-8.3h3.1L394.5,83z"/>
<path class="st0" d="M424,80.1c-2.1,2.3-5.1,3.5-8.2,3.3c-6.5,0-11.5-4.6-11.5-11.6c0.1-6.5,5.3-11.6,11.8-11.6c2.8,0,5.6,1.1,7.7,3
	l-1.3,2.5c-1.7-1.8-4.1-2.8-6.5-2.7c-4.8,0-8.4,3.5-8.4,8.8s3.5,8.8,8.4,8.8c2.5,0.1,5-0.9,6.7-2.7L424,80.1z"/>
<path class="st0" d="M438.9,83h-3v-2c-1.2,1.5-3,2.3-4.9,2.3c-2.9,0-5.3-1.8-5.3-4.8s2.5-4.5,6.1-4.7l4.1-0.2v-0.6
	c0-2.3-1.6-3.5-3.8-3.5c-1.6,0-3.2,0.5-4.7,1.3l-1-2.1c1.8-1,3.8-1.5,5.8-1.6c2.6,0,4.1,0.7,5.1,1.8s1.7,2.4,1.7,5L438.9,83z
	 M435.8,75.6l-3.6,0.2c-2.5,0.1-3.5,1.2-3.5,2.7s1.1,2.7,3.2,2.7c1.6,0,3.1-0.9,3.9-2.2V75.6z"/>
<path class="st0" d="M456.4,83h-3.1v-8.6c0-2.6-0.5-4.6-3.2-4.6s-4,2.4-4,5.4V83h-3.1V67.5h3.2V70h0.1c0.9-1.7,2.8-2.8,4.7-2.7
	c4.4,0,5.5,2.9,5.5,6.6L456.4,83z"/>
<path class="st0" d="M472.5,83h-3v-2c-1.2,1.5-3,2.3-4.9,2.3c-2.9,0-5.3-1.8-5.3-4.8s2.5-4.5,6-4.7l4.1-0.2v-0.6
	c0-2.3-1.6-3.5-3.8-3.5c-1.6,0-3.2,0.5-4.7,1.3l-0.9-2.1c1.8-1,3.8-1.5,5.8-1.6c2.6,0,4.1,0.7,5.1,1.8s1.7,2.4,1.7,5L472.5,83z
	 M469.4,75.6l-3.6,0.2c-2.5,0.1-3.5,1.2-3.5,2.7s1.1,2.7,3.2,2.7c1.6-0.1,3.1-0.9,3.9-2.2V75.6z"/>
<path class="st0" d="M491.5,83h-3v-2.5h-0.1c-1.2,1.8-3.3,2.9-5.4,2.8c-4.6,0-7.5-3.5-7.5-8.1s2.9-8,7.5-8c2.1-0.1,4.2,0.9,5.4,2.7
	h0.1v-9.4h3.1V83z M483.6,69.8c-3.1,0-4.9,2.3-4.9,5.4s1.8,5.5,4.9,5.5s4.9-2.4,4.9-5.5S486.7,69.8,483.6,69.8L483.6,69.8z"/>
<path class="st0" d="M508,83h-3v-2c-1.2,1.5-3,2.3-4.9,2.3c-2.9,0-5.3-1.8-5.3-4.8s2.5-4.5,6-4.7l4.1-0.2v-0.6
	c0-2.3-1.6-3.5-3.8-3.5c-1.6,0-3.2,0.5-4.7,1.3l-1-2.1c1.8-1,3.8-1.5,5.8-1.6c2.6,0,4.1,0.7,5.1,1.8s1.7,2.4,1.7,5L508,83z
	 M504.9,75.6l-3.6,0.2c-2.5,0.1-3.5,1.2-3.5,2.7s1.1,2.7,3.2,2.7c1.6,0,3.1-0.9,3.9-2.2V75.6z"/>
<path class="st0" d="M138.4,43.5c-2.1,2.3-5.1,3.5-8.2,3.3c-6.5,0-11.5-4.6-11.5-11.6c0.1-6.5,5.3-11.6,11.8-11.6
	c2.8,0,5.5,1.1,7.7,3l-1.3,2.5c-1.7-1.8-4.1-2.8-6.5-2.7c-4.9,0-8.4,3.5-8.4,8.8s3.5,8.8,8.4,8.8c2.5,0.1,5-0.9,6.7-2.7L138.4,43.5z
	"/>
<path class="st0" d="M153.3,46.4h-3v-2c-1.2,1.5-3,2.3-4.9,2.3c-2.9,0-5.3-1.8-5.3-4.8s2.5-4.5,6.1-4.7l4.1-0.2v-0.6
	c0-2.3-1.6-3.5-3.8-3.5c-1.6,0-3.2,0.5-4.6,1.3l-1-2.1c1.8-1,3.8-1.5,5.8-1.6c2.6,0,4.1,0.7,5.1,1.8s1.7,2.4,1.7,5L153.3,46.4z
	 M150.2,38.9l-3.6,0.2c-2.5,0.1-3.5,1.2-3.5,2.7s1.1,2.7,3.2,2.7c1.6,0,3.1-0.9,3.9-2.2V38.9z"/>
<path class="st0" d="M170.8,46.4h-3.1v-8.6c0-2.6-0.5-4.6-3.2-4.6s-4,2.4-4,5.4v7.8h-3.1V30.9h3.1v2.4h0.1c0.9-1.7,2.8-2.8,4.7-2.7
	c4.4,0,5.5,2.9,5.5,6.6L170.8,46.4z"/>
<path class="st0" d="M186.9,46.4h-3v-2c-1.2,1.5-3,2.3-4.9,2.3c-2.9,0-5.3-1.8-5.3-4.8s2.5-4.5,6-4.7l4.1-0.2v-0.6
	c0-2.3-1.6-3.5-3.8-3.5c-1.6,0-3.2,0.5-4.7,1.3l-0.9-2.1c1.7-1,3.7-1.5,5.7-1.5c2.6,0,4.1,0.7,5.1,1.8s1.7,2.4,1.7,5L186.9,46.4z
	 M183.8,38.9l-3.6,0.2c-2.5,0.1-3.5,1.2-3.5,2.7s1.1,2.7,3.2,2.7c1.6,0,3.1-0.9,3.9-2.2L183.8,38.9z"/>
<path class="st0" d="M205.9,46.4h-3v-2.5h-0.1c-1.2,1.8-3.3,2.9-5.4,2.8c-4.6,0-7.5-3.5-7.5-8.1s2.9-8,7.5-8
	c2.1-0.1,4.2,0.9,5.4,2.7h0.1v-9.4h3.1L205.9,46.4z M198,33.2c-3.1,0-4.9,2.3-4.9,5.4s1.8,5.5,4.9,5.5s4.9-2.4,4.9-5.5
	S201.1,33.2,198,33.2L198,33.2z"/>
<path class="st0" d="M222.3,46.4h-3v-2c-1.2,1.5-3,2.3-4.9,2.3c-2.9,0-5.3-1.8-5.3-4.8s2.5-4.5,6.1-4.7l4.1-0.2v-0.6
	c0-2.3-1.6-3.5-3.8-3.5c-1.6,0-3.2,0.5-4.7,1.3l-0.9-2.1c1.8-1,3.8-1.5,5.8-1.6c2.6,0,4.1,0.7,5.1,1.8s1.7,2.4,1.7,5L222.3,46.4z
	 M219.3,38.9l-3.6,0.2c-2.5,0.1-3.5,1.2-3.5,2.7s1.1,2.7,3.2,2.7c1.6,0,3.1-0.9,3.9-2.2L219.3,38.9z"/>
<path class="st0" d="M251.6,43.5c-2.1,2.3-5.1,3.5-8.2,3.3c-6.5,0-11.5-4.6-11.5-11.6c0.1-6.5,5.3-11.6,11.8-11.6
	c2.8,0,5.5,1.1,7.7,3l-1.3,2.5c-1.7-1.8-4.1-2.8-6.5-2.7c-4.9,0-8.4,3.5-8.4,8.8s3.5,8.8,8.4,8.8c2.5,0.1,5-0.9,6.7-2.7L251.6,43.5z
	"/>
<path class="st0" d="M261.3,46.7c-4.4-0.1-8-3.7-7.9-8.2c0.1-4.4,3.7-8,8.2-7.9c4.4,0.1,8,3.7,7.9,8.1c0.1,4.3-3.3,7.9-7.7,8
	C261.6,46.8,261.5,46.8,261.3,46.7z M261.3,33.2c-3.1,0-5,2.4-5,5.4s1.9,5.5,5,5.5c3.1,0,5-2.4,5-5.5S264.4,33.2,261.3,33.2z"/>
<path class="st0" d="M285.9,46.4h-3v-2.2c-1,1.7-2.8,2.6-4.8,2.6c-1.6,0.2-3.2-0.5-4.3-1.8c-0.9-1.4-1.3-3.1-1.1-4.8v-9.2h3.1v9.1
	c0,2.1,0.5,4.1,3.2,4.1s3.8-2.3,3.8-5v-8.3h3.1L285.9,46.4z"/>
<path class="st0" d="M303.6,46.4h-3.1v-8.6c0-2.6-0.5-4.6-3.2-4.6s-4,2.4-4,5.4v7.8h-3.1V30.9h3.1v2.4h0.1c0.9-1.7,2.8-2.8,4.8-2.7
	c4.4,0,5.5,2.9,5.5,6.6L303.6,46.4z"/>
<path class="st0" d="M320.7,44.4c-0.5,0.5-2,2.3-6.2,2.3c-4.4,0-8-3.7-8-8.1c0-4.4,3.7-8,8.1-8l0,0c4.1,0,5.8,2,6,2.2l-1.1,2.3
	c-1.2-1.3-2.9-1.9-4.6-1.9c-2.8,0-5,2.2-5,5c0,0.1,0,0.2,0,0.4c0,3.2,2,5.5,5,5.5c1.8,0,3.5-0.7,4.7-2L320.7,44.4z"/>
<path class="st0" d="M324.9,27.8c-1.1,0-1.9-0.9-1.8-2c0-1.1,0.9-1.9,2-1.8c1,0,1.8,0.9,1.8,1.9C326.9,26.9,326,27.8,324.9,27.8
	C325,27.8,324.9,27.8,324.9,27.8z M326.5,46.4h-3.1V30.9h3.1V46.4z"/>
<path class="st0" d="M334.1,46.4H331V23.9h3.1V46.4z"/>
<path class="st0" d="M127.5,62.9c-0.6-0.2-1.2-0.3-1.8-0.3c-2.1,0-2.4,1.5-2.4,3.3v1.7h3.7v2.5h-3.7V83h-3.1V70.1H118v-2.5h2.2V66
	c-0.1-1.5,0.2-2.9,1.1-4.1c0.9-1.1,2.3-1.7,3.7-1.7c0.9,0,1.8,0.1,2.7,0.4L127.5,62.9z"/>
<path class="st0" d="M135.7,83.4c-4.5-0.1-8-3.7-8-8.2c0.1-4.5,3.7-8,8.2-8c4.4,0.1,8,3.7,8,8.1c0.1,4.3-3.3,7.9-7.7,8
	C136,83.4,135.8,83.4,135.7,83.4z M135.7,69.8c-3.1,0-5,2.4-5,5.4s1.9,5.5,5,5.5s5-2.4,5-5.5S138.8,69.8,135.7,69.8z"/>
<path class="st0" d="M155.5,70.4h-0.1c-0.5-0.2-1.1-0.3-1.7-0.3c-1,0-1.9,0.5-2.5,1.3c-0.7,1.2-1,2.5-0.9,3.9V83h-3.1V67.5h3.1v2.4
	h0.1c0.6-1.6,2.1-2.7,3.8-2.7c0.6,0,1.1,0.1,1.6,0.3L155.5,70.4z"/>
<path class="st0" d="M172,82.8c-0.9,0.3-1.9,0.5-2.8,0.5c-1.3,0.1-2.6-0.5-3.3-1.6c-0.6-1-0.8-2.2-0.8-4.6v-7.1h-2.3v-2.5h2.3v-4.6
	h3.1v4.6h3.7v2.5h-3.7v7c-0.1,1,0,1.9,0.4,2.8c0.3,0.6,1,0.9,1.6,0.8c0.6,0,1.1-0.1,1.6-0.4L172,82.8z"/>
<path class="st0" d="M188.2,83h-3.1v-8.8c0-2.2-0.4-4.4-3.2-4.4s-4,2.4-4,5.5V83h-3.1V60.5h3.1v9.4h0.1c0.9-1.7,2.8-2.8,4.8-2.7
	c4.5,0,5.5,2.9,5.5,6.5L188.2,83z"/>
<path class="st0" d="M206.4,76h-11.9c0.2,3.1,2.1,4.9,5,4.9c1.9,0,3.6-0.7,5.1-1.8l1.3,1.8c-0.2,0.2-2.2,2.4-6.8,2.4
	s-7.7-3.2-7.7-8.1c-0.2-4.2,3.1-7.8,7.3-8c0.2,0,0.4,0,0.5,0c3.9-0.1,7.2,2.9,7.3,6.8c0,0.2,0,0.4,0,0.6
	C206.5,75.1,206.5,75.5,206.4,76z M203.6,73.9c0-2.4-2-4.4-4.5-4.4c-2.5,0-4.5,2-4.5,4.4H203.6z"/>
<path class="st0" d="M235.1,83h-3.5l-2.3-5.9h-9.6l-2.3,5.9H214l9.1-22.5h2.8L235.1,83z M228.4,74.5l-3.9-10.1l-3.9,10.1H228.4z"/>
<path class="st0" d="M245.7,70.4h-0.1c-0.5-0.2-1.1-0.3-1.7-0.3c-1,0-1.9,0.5-2.5,1.3c-0.7,1.2-1,2.5-1,3.9V83h-3.1V67.5h3.1v2.4
	h0.1c0.6-1.6,2.1-2.7,3.8-2.7c0.6,0,1.1,0.1,1.6,0.3L245.7,70.4z"/>
<path class="st0" d="M255.7,82.8c-0.9,0.3-1.9,0.5-2.8,0.5c-1.3,0.1-2.6-0.5-3.3-1.6c-0.6-1-0.8-2.2-0.8-4.6v-7.1h-2.3v-2.5h2.3
	v-4.6h3.1v4.6h3.7v2.5h-3.7v7c-0.1,1,0,1.9,0.4,2.8c0.3,0.6,1,0.9,1.6,0.8c0.6,0,1.1-0.1,1.6-0.4L255.7,82.8z"/>
<path class="st0" d="M267.1,81.9c-1.2,0.9-2.8,1.4-4.3,1.4c-2.3,0.1-4.5-1-6-2.8l1.5-1.8c1.1,1.3,2.8,2.1,4.5,2.2c1.4,0,3-0.5,3-2.2
	s-2.4-2.2-3.5-2.6c-0.7-0.2-1.4-0.5-2.1-0.8c-1.5-0.6-2.5-2.1-2.4-3.7c0-2.9,2.5-4.4,5.2-4.4c2-0.1,3.9,0.6,5.3,2l-1.3,1.9
	c-1-1-2.4-1.6-3.9-1.7c-1.5,0-2.5,0.6-2.5,1.9s1.5,1.8,3,2.3c0.8,0.3,1.4,0.5,2.1,0.8c0.7,0.3,1.3,0.6,1.8,1.1
	c0.8,0.7,1.2,1.8,1.2,2.9C268.8,79.8,268.2,81.1,267.1,81.9z"/>
<path class="st0" d="M93.1,83.9c-5-4.9-19.5-9.1-34.4-10c-0.9,0.7-1.7,1.5-2.2,2.5c12.5,0.6,24.6,4.1,29,8.1c4,3.2,3.4,7.6-1.2,10.6
	c-6.8,4.8-20.9,7-36.2,6.9s-29.4-2.1-36.2-6.9c-4.7-3-5.3-7.4-1.2-10.6c4.4-4,16.5-7.6,29-8.1c-0.5-1-1.3-1.9-2.2-2.5
	C22.4,74.8,7.9,79,2.9,83.9C-4,90,1.5,97.1,16.4,101.4c8.3,2.5,20,3.9,31.6,3.9s23.2-1.4,31.5-3.9C94.4,97.1,99.9,90,93.1,83.9z"/>
<path class="st0" d="M85.1,33.3c-0.3-4.1-3.6-7.3-7.6-8.8c1.6-2.2,1.9-5.1,0.7-7.6c-1.9-4.4-7-5.9-10.1-5.6
	c-4.4,0.3-6.9,2.1-11.5,5.6c-1.1-0.8-3.2-2.4-4.2-3.2l0,0c2-1.6,4.1-3.1,6.4-4.3c1.6-0.9,3.4-1.6,5.2-1.9C60.2,2.8,54.3,0,48,0l0,0
	c-6.2,0-12.1,2.8-16.1,7.6c1.8,0.3,3.6,0.9,5.2,1.9c2.3,1.2,4.4,2.7,6.4,4.3c-1,0.7-3.1,2.3-4.2,3.2c-4.6-3.5-7.2-5.3-11.5-5.6
	c-3.1-0.2-8.2,1.2-10.1,5.6c-1.2,2.5-0.9,5.4,0.7,7.6c-4,1.5-7.3,4.7-7.6,8.8s2.1,7.9,6.4,9.8c-1.1,1.4-1.7,3-1.8,4.8
	c0,4,3.6,9.4,11.2,9.2c5.7-0.1,7.9-1.9,12.4-5.4c0.3,0.4,3.7,5.9,3.7,15.4c0,0,0.5,7.3-3.1,25.1l0,0c0,1,3.7,1.7,8.3,1.7
	s8.3-0.8,8.3-1.7l0,0c-3.6-17.8-3.1-25.1-3.1-25.1c0-9.6,3.5-15,3.7-15.4c4.4,3.5,6.7,5.2,12.4,5.4c7.6,0.2,11.2-5.2,11.2-9.2
	c-0.1-1.7-0.7-3.4-1.8-4.8C83,41.2,85.4,37.4,85.1,33.3z M68,16.9c4-0.2,5.5,2.2,5.2,3.8c-0.4,2-2.9,3.5-5.2,3.2s-4-1.4-6.7-3.6
	C63.1,18.9,65.4,17.1,68,16.9z M56.8,23.8c1.3,1,2.5,1.9,3.5,2.6c0.5,0.4,1,0.8,1.5,1.1c-0.7,0.5-1.2,0.9-2,1.5
	c-0.6,0.4-1.4,1.1-2.3,1.7c-1.4-1-3-2.2-4.9-3.7C53.9,26.1,55.2,24.9,56.8,23.8L56.8,23.8z M52.2,20.3c-1.3,1-2.5,1.9-4.1,3.1l0,0
	l0,0c-1.6-1.2-2.8-2.2-4.1-3.1c1-0.8,2.3-1.8,4-3.1l0.1-0.1l0.1,0.1C49.9,18.6,51.1,19.5,52.2,20.3L52.2,20.3z M42.3,6.4
	c0,0,1.4-1.6,5.6-1.6s5.6,1.6,5.6,1.6C52.7,7,51.8,7.5,51,8.1c-1.9,1.4-2.9,2.1-3,2.2s-1-0.9-3-2.2C44.1,7.5,43.3,7,42.3,6.4
	L42.3,6.4z M47.8,30.6l0.2-0.2l0.2,0.2c1.5,1.2,3.1,2.3,4.8,3.6c-1,0.7-1.8,1.4-2.5,1.9s-1.5,1.1-2.3,1.7L48,37.9l-0.1-0.1
	c-0.8-0.6-1.6-1.2-2.3-1.7S44,34.9,43,34.2C44.7,32.9,46.3,31.8,47.8,30.6L47.8,30.6z M39.2,23.8c1.5,1.1,2.9,2.2,4.2,3.2
	c-1.9,1.5-3.6,2.7-4.9,3.7c-0.8-0.6-1.7-1.3-2.3-1.7c-0.8-0.6-1.3-1-2-1.5c0.5-0.4,1-0.7,1.5-1.1C36.7,25.7,38,24.8,39.2,23.8
	L39.2,23.8z M28,16.9c2.6,0.1,4.9,2,6.7,3.4C32,22.6,30.3,23.7,28,24s-4.8-1.2-5.2-3.2C22.5,19.2,24.1,16.8,28,16.9z M16.4,34.3
	c-0.1-2.1,1.4-5.1,7-5.4c3.8-0.2,6.4,2,10.6,5.1c-3.3,2.5-5.9,4.7-10.7,5C19.5,39.4,16.6,36.5,16.4,34.3L16.4,34.3z M27.1,51.7
	c-4,0.2-6.4-1.8-6.2-4c0.1-1.7,3.9-5.7,11.8-2.2c1,0.5,2,1.1,2.9,1.8C31.7,50.3,30.2,51.5,27.1,51.7z M39.9,44.1
	c-1.5-1.5-3.3-2.7-5.2-3.6c1.2-0.8,2.5-1.8,3.8-2.8c0,0,0.1-0.1,0.1-0.1c1.8,1.3,3.5,2.6,5,3.8C42.3,42.3,41.1,43.2,39.9,44.1
	L39.9,44.1z M48.1,59.1L48,59.6l-0.1-0.5c-0.7-3.7-2.1-7.2-4-10.4c1.4-1.1,2.7-2.1,4.1-3.1c1.4,1,2.6,2,4.1,3.1
	C50.1,51.9,48.8,55.4,48.1,59.1L48.1,59.1z M56.1,44.1c-1.2-0.9-2.4-1.8-3.7-2.8c1.5-1.1,3.2-2.4,4.9-3.8c0,0,0.1,0.1,0.1,0.1
	c1.3,1.1,2.5,2,3.8,2.8C59.4,41.4,57.6,42.6,56.1,44.1L56.1,44.1z M68.8,51.7c-3.1-0.1-4.5-1.4-8.5-4.3c0.9-0.7,1.9-1.4,2.9-1.8
	C71.2,42,75,46,75.1,47.7C75.3,49.9,72.9,51.9,68.8,51.7L68.8,51.7z M72.6,39.1c-4.8-0.4-7.4-2.5-10.7-5c4.1-3.1,6.8-5.4,10.6-5.1
	c5.6,0.3,7.1,3.3,7,5.4S76.5,39.4,72.6,39.1L72.6,39.1z"/>
</svg>
