<?xml version="1.0" encoding="utf-8"?>
<!-- Generator: Adobe Illustrator 24.0.2, SVG Export Plug-In . SVG Version: 6.00 Build 0)  -->
<svg version="1.1" id="Layer_1" xmlns="http://www.w3.org/2000/svg" xmlns:xlink="http://www.w3.org/1999/xlink" x="0px" y="0px"
	 viewBox="0 0 848.55 364.11" style="enable-background:new 0 0 848.55 364.11;" xml:space="preserve">
<style type="text/css">
	.st0{fill:#E0DCE9;}
</style>
<g>
	<g>
		<path class="st0" d="M425.89,223.85c0-0.04,0.01-0.07,0.01-0.11h-0.01V223.85z"/>
		<path class="st0" d="M499.25,177.47v-0.89c6.07-1.01,10.93-4.02,14.59-9.01c3.66-5,5.49-11.39,5.49-19.19
			c0-11.48-4.18-19.86-12.54-25.12c-8.36-5.26-21.79-7.9-40.29-7.9h-40.6v108.72c0.12,11.89,9.68,21.51,21.55,21.74h27.26
			c14.75,0,26.43-3.33,35.03-9.99c8.6-6.66,12.89-15.94,12.89-27.84c0-8.39-1.83-15.11-5.49-20.17
			C513.49,182.76,507.52,179.31,499.25,177.47z M453.56,138.02h14.55c7.91,0,13.7,1.09,17.36,3.26c3.66,2.17,5.49,5.76,5.49,10.75
			c0,5.35-1.68,9.19-5.04,11.51c-3.36,2.32-8.79,3.48-16.29,3.48h-16.06V138.02z M488.46,218.6c-3.63,2.92-9.25,4.37-16.87,4.37
			h-18.03v-34h17.13c15.47,0,23.2,5.41,23.2,16.24C493.9,211.23,492.08,215.69,488.46,218.6z"/>
		<path class="st0" d="M806.52,189.33l39.62-43.28h-30.7l-27.93,30.34l-11.87,15.17h-0.36l1.43-22.67v-61.93H749.5v138.85h27.22
			v-31.05l11.69-9.37l14.99,21.09l6.69,9.54l0.08-0.06c3.86,5.83,10.43,9.71,17.92,9.85h20.46L806.52,189.33z"/>
	</g>
	<path class="st0" d="M722.64,153.59c-6.01-6.28-14.81-9.41-26.41-9.41c-6.78,0-12.84,1.23-18.16,3.7
		c-4.71,2.18-8.47,5.34-11.39,9.37v-11.2h-27.18v42.22h0.07v57.55h27.22v-46.94c0-11.78,1.7-20.21,5.09-25.3
		c3.39-5.09,8.89-7.63,16.51-7.63c5.59,0,9.67,1.8,12.23,5.4c2.56,3.6,3.84,9,3.84,16.2v58.27h27.22v-65.05
		C731.65,168.93,728.65,159.87,722.64,153.59z"/>
</g>
<g>
	<path class="st0" d="M329.75,0H156.88c-23.92,0-47.25,10.31-60.15,23.33C85.57,34.57,48.97,73.13,23.8,99.17
		C8.26,115.25,0,133.68,0,158.87v177.9c0,15.1,12.24,27.34,27.34,27.34h172.31c20.78,0,47.75-10.41,60.42-23.03
		c11.22-11.18,48.32-50,73.33-76.21c12.87-13.5,23.69-31.15,23.69-59.8V27.34C357.09,12.24,344.85,0,329.75,0z M159.51,117.45
		c-0.62,11.38-9.87,20.44-21.33,20.75H96.81v31.4h59.4v2.07c-0.69,11.29-9.87,20.26-21.24,20.6H96.81v30.89h62.7v1.91
		c-0.62,11.39-9.87,20.45-21.34,20.75H69.15V137.3c0.02-11.99,9.63-21.71,21.56-21.94h68.81V117.45z M286.63,268.76l-24.15-0.01
		c-5.33-0.76-10.1-2.65-13.87-5.3l-1.75-1.34c-0.79-0.66-1.5-1.37-2.17-2.11l-1.34-1.63c-0.05-0.07-0.09-0.14-0.13-0.21l-0.02,0.01
		l-3.15-3.89v0.04l-5.5-6.73h-2.05c-19.99,0-35.34-5.8-46.05-17.4c-10.71-11.6-16.06-28.26-16.06-49.97s5.37-38.3,16.11-49.75
		c10.74-11.45,26.13-17.18,46.18-17.18c20.05,0,35.38,5.77,46,17.31s15.93,28.14,15.93,49.79c0,15.35-2.72,28.21-8.17,38.59
		c-5.44,10.38-13.43,17.98-23.96,22.8L286.63,268.76z"/>
	<path class="st0" d="M232.68,136.33c-11.01,0-19.3,3.7-24.9,11.11c-5.59,7.41-8.39,18.4-8.39,32.97c0,14.58,2.77,25.55,8.3,32.93
		c5.53,7.38,13.8,11.07,24.81,11.07c22.07,0,33.11-14.66,33.11-43.99C265.61,151.02,254.64,136.33,232.68,136.33z"/>
	<path class="st0" d="M80.03,128.89L80.03,128.89c0.01-0.04,0-0.08,0-0.12V128.89z"/>
</g>
<path class="st0" d="M610.69,152.75c-7.14-5.83-17.4-8.74-30.79-8.74c-12.89,0-24.7,2.58-35.46,7.69l6.39,19.66
	c10.72-4.79,20.05-7.18,28-7.18c10.35,0,15.53,5.06,15.53,15.17v4.37l-17.31,0.54c-14.93,0.53-26.1,3.32-33.51,8.34
	c-7.41,5.03-11.11,12.84-11.11,23.43c0,10.11,2.75,17.91,8.25,23.38c5.5,5.47,13.04,8.21,22.62,8.21c7.79,0,14.11-1.12,18.96-3.35
	c4.07-1.87,8.04-5.07,11.92-9.44v11h8.2h14.41h4.6v-66.48C621.39,167.44,617.82,158.58,610.69,152.75z M594.35,201.56h-0.17v8.27
	c-0.39,5.05-2.17,9.23-5.5,12.43c-3.78,3.63-8.82,5.44-15.13,5.44c-8.8,0-13.21-3.84-13.21-11.51c0-5.35,1.93-9.34,5.8-11.96
	c3.87-2.62,9.76-4.05,17.67-4.28l10.53-0.36V201.56z"/>
</svg>
