<?xml version="1.0" encoding="utf-8"?>
<!-- Generator: Adobe Illustrator 24.0.2, SVG Export Plug-In . SVG Version: 6.00 Build 0)  -->
<svg version="1.1" id="Layer_1" xmlns="http://www.w3.org/2000/svg" xmlns:xlink="http://www.w3.org/1999/xlink" x="0px" y="0px"
	 viewBox="0 0 20 18.35" style="enable-background:new 0 0 20 18.35;" xml:space="preserve">
<style type="text/css">
	.st0{fill:#FF7575;}
</style>
<path class="st0" d="M10,18.35l-1.45-1.3c-1.68-1.52-3.08-2.83-4.18-3.93s-1.97-2.09-2.62-2.96s-1.1-1.68-1.36-2.41S0,6.27,0,5.5
	c0-1.57,0.53-2.88,1.58-3.92S3.93,0,5.5,0c0.87,0,1.69,0.18,2.47,0.55C8.76,0.92,9.43,1.43,10,2.1c0.57-0.67,1.24-1.18,2.03-1.55
	S13.63,0,14.5,0c1.57,0,2.88,0.53,3.93,1.58C19.48,2.62,20,3.93,20,5.5c0,0.77-0.13,1.52-0.39,2.25c-0.26,0.73-0.71,1.54-1.36,2.41
	s-1.52,1.86-2.62,2.96s-2.49,2.41-4.18,3.93L10,18.35z"/>
</svg>
