<?xml version="1.0" encoding="utf-8"?>
<!-- Generator: Adobe Illustrator 24.0.2, SVG Export Plug-In . SVG Version: 6.00 Build 0)  -->
<svg version="1.1" id="Layer_1" xmlns="http://www.w3.org/2000/svg" xmlns:xlink="http://www.w3.org/1999/xlink" x="0px" y="0px"
	 viewBox="0 0 20 18.35" style="enable-background:new 0 0 20 18.35;" xml:space="preserve">
<style type="text/css">
	.st0{fill:#FF7575;}
</style>
<path class="st0" d="M10,18.35l-1.45-1.3c-1.68-1.52-3.08-2.83-4.18-3.93s-1.97-2.09-2.62-2.96s-1.1-1.68-1.36-2.41S0,6.27,0,5.5
	c0-1.57,0.53-2.88,1.58-3.92S3.93,0,5.5,0c0.87,0,1.69,0.18,2.47,0.55C8.76,0.92,9.43,1.43,10,2.1c0.57-0.67,1.24-1.18,2.03-1.55
	S13.63,0,14.5,0c1.57,0,2.88,0.53,3.93,1.58C19.48,2.62,20,3.93,20,5.5c0,0.77-0.13,1.52-0.39,2.25c-0.26,0.73-0.71,1.54-1.36,2.41
	s-1.52,1.86-2.62,2.96s-2.49,2.41-4.18,3.93L10,18.35z M10,15.65c1.6-1.43,2.92-2.66,3.95-3.69s1.85-1.92,2.45-2.68
	c0.6-0.76,1.02-1.43,1.25-2.03C17.88,6.67,18,6.08,18,5.5c0-1-0.33-1.83-1-2.5c-0.67-0.67-1.5-1-2.5-1c-0.78,0-1.51,0.22-2.18,0.66
	c-0.67,0.44-1.12,1-1.38,1.69h-1.9C8.8,3.67,8.34,3.1,7.68,2.66S6.28,2,5.5,2C4.5,2,3.67,2.33,3,3S2,4.5,2,5.5
	c0,0.58,0.12,1.17,0.35,1.76C2.58,7.85,3,8.53,3.6,9.29s1.42,1.65,2.45,2.68S8.4,14.22,10,15.65z"/>
</svg>
