<?xml version="1.0" encoding="utf-8"?>
<!-- Generator: Adobe Illustrator 24.0.2, SVG Export Plug-In . SVG Version: 6.00 Build 0)  -->
<svg version="1.1" id="Layer_1" xmlns="http://www.w3.org/2000/svg" xmlns:xlink="http://www.w3.org/1999/xlink" x="0px" y="0px"
	 viewBox="0 0 179.48 21.39" style="enable-background:new 0 0 179.48 21.39;" xml:space="preserve">
<style type="text/css">
	.st0{fill:#F6FD5F;}
</style>
<path class="st0" d="M2.06,0.06c0.2,0,0.4,0,0.6,0c1.45,0,1.45,0,1.91,1.4c0.57,1.75,1.13,3.5,1.69,5.25
	c0.04,0.11,0.08,0.22,0.13,0.32C6.45,7.17,6.53,7.3,6.59,7.44c0.07-0.13,0.15-0.25,0.21-0.38c0.93-2.08,2.03-4.07,2.86-6.19
	c0.04-0.11,0.1-0.22,0.18-0.3c0.14-0.17,0.3-0.33,0.45-0.49c0.14,0.17,0.32,0.31,0.41,0.5c0.94,2.03,1.98,4.01,2.8,6.09
	c0.03,0.07,0.09,0.13,0.14,0.19c0.13,0.19,0.26,0.38,0.38,0.57c0.07-0.2,0.14-0.4,0.21-0.6c0.69-2.03,1.39-4.06,2.08-6.09
	c0.23-0.66,0.23-0.67,0.88-0.68c0.96-0.01,1.92-0.01,2.88,0c0.58,0.01,0.58,0.02,0.4,0.56c-1.18,3.48-2.35,6.96-3.54,10.44
	c-0.68,1.99-1.36,3.98-2.05,5.98c-0.02,0.07-0.06,0.14-0.09,0.21c-0.09-0.06-0.22-0.1-0.27-0.19c-0.26-0.48-0.51-0.96-0.73-1.45
	c-0.83-1.78-1.65-3.57-2.47-5.36c-0.3-0.66-0.57-1.35-0.87-2.01c-0.04-0.1-0.17-0.16-0.26-0.23c-0.04,0.1-0.08,0.21-0.13,0.31
	c-0.8,1.75-1.6,3.5-2.39,5.26c-0.49,1.09-0.96,2.18-1.44,3.27C6.2,16.93,6.08,17.04,6,17.04c-0.1,0-0.22-0.08-0.29-0.16
	c-0.09-0.12-0.14-0.27-0.19-0.41C4.08,12.23,2.65,7.98,1.2,3.75C0.85,2.73,0.45,1.73,0.09,0.72C-0.1,0.2-0.01,0.07,0.5,0.06
	C1.02,0.05,1.54,0.06,2.06,0.06z"/>
<path class="st0" d="M42.23,13.2c0-2.47,0-4.94,0-7.42c0-0.73-0.02-0.71,0.73-0.7c0.76,0.01,1.52-0.03,2.28,0.02
	C45.53,5.11,46,4.83,46.1,5.42c0,0.01,0.19,0.02,0.25-0.03c0.96-0.75,2.1-0.62,3.17-0.5c1,0.12,1.95,0.58,2.7,1.24
	c0.57,0.5,1.09,1.16,1.4,1.85c1,2.27,0.97,4.57-0.37,6.69c-0.85,1.35-2.1,2.21-3.82,2.45c-1.13,0.16-2.12,0.01-3.11-0.42
	c-0.28-0.12-0.22,0.09-0.23,0.21c-0.01,0.28,0,0.56,0,0.84c0,1.04-0.02,2.07,0.01,3.11c0.01,0.45-0.16,0.54-0.56,0.53
	c-0.92-0.02-1.84-0.02-2.76,0c-0.41,0.01-0.56-0.1-0.55-0.53c0.02-2.03,0.01-4.07,0.01-6.1C42.23,14.24,42.23,13.72,42.23,13.2z
	 M46.08,11.02c0,0.44-0.01,0.87,0,1.31c0.01,0.71,0.18,0.84,0.9,1.15c1.09,0.47,1.92,0.19,2.74-0.62c0.79-0.78,0.84-1.72,0.6-2.61
	C50.13,9.6,49.83,8.8,48.98,8.6c-0.45-0.1-0.92-0.14-1.39-0.15c-1-0.01-1.51,0.51-1.52,1.49C46.07,10.3,46.08,10.66,46.08,11.02z"/>
<path class="st0" d="M56.15,13.11c0-2.47,0-4.95,0-7.42c0-0.59,0.01-0.6,0.58-0.61c0.88-0.01,1.76-0.01,2.64,0
	c0.25,0,0.6-0.14,0.64,0.31c0.12-0.02,0.24-0.01,0.35-0.05c0.69-0.24,1.36-0.54,2.13-0.51c2.57,0.08,4.49,1.44,5.42,3.87
	c0.19,0.5,0.3,1.04,0.27,1.6c-0.06,1.13,0.05,2.23-0.45,3.34c-0.52,1.16-1.29,1.99-2.28,2.72c-0.89,0.66-1.95,0.76-2.96,0.89
	c-0.64,0.08-1.36-0.22-2-0.46c-0.44-0.17-0.49-0.14-0.48,0.32c0.03,1.28,0.01,2.55,0.01,3.83c0,0.28-0.07,0.44-0.4,0.44
	c-1-0.01-2-0.02-3,0c-0.38,0.01-0.46-0.16-0.46-0.5c0.01-1.2,0.01-2.39,0.01-3.59C56.15,15.9,56.15,14.51,56.15,13.11z M59.99,11.06
	c0,0.44,0.04,0.88-0.01,1.32c-0.06,0.54,0.25,0.87,0.63,1.05c1.36,0.65,3.1,0.1,3.5-1.23c0.16-0.52,0.14-1,0.18-1.5
	c0.08-0.94-0.43-1.58-1.19-2c-0.81-0.45-1.67-0.37-2.48,0.01c-0.44,0.21-0.71,0.6-0.65,1.16C60.03,10.26,59.99,10.66,59.99,11.06z"
	/>
<path class="st0" d="M144.67,13.14c0-2.47,0-4.95,0-7.42c0-0.62,0.01-0.63,0.67-0.64c0.84-0.01,1.68,0,2.52,0
	c0.16,0,0.43-0.05,0.46,0.02c0.3,0.56,0.59,0.23,0.96,0.08c1.68-0.68,3.28-0.41,4.78,0.53c1.81,1.14,2.57,2.84,2.61,4.91
	c0.02,1.06,0,2.08-0.46,3.1c-0.5,1.12-1.25,1.98-2.25,2.61c-0.65,0.41-1.37,0.63-2.16,0.78c-1.06,0.21-1.95-0.17-2.91-0.34
	c-0.26-0.05-0.39-0.24-0.39,0.18c0.01,1.04,0,2.07,0,3.11c0,0.28-0.02,0.56,0,0.84c0.03,0.37-0.14,0.48-0.49,0.47
	c-1.1-0.05-2.21-0.08-3.31-0.12c-0.02-1.03-0.04-2.06-0.05-3.1C144.67,16.49,144.67,14.82,144.67,13.14z M148.52,11.01
	c0,0.4-0.02,0.8,0.01,1.2c0.01,0.27-0.01,0.63,0.15,0.77c0.33,0.3,0.75,0.6,1.17,0.7c1.1,0.27,2.49-0.56,2.83-1.54
	c0.17-0.48,0.1-0.93,0.16-1.39c0.18-1.56-1.64-2.92-3.51-2.09c-0.59,0.26-0.85,0.64-0.8,1.27
	C148.55,10.29,148.52,10.65,148.52,11.01z"/>
<path class="st0" d="M130.76,13.11c0-2.47,0-4.95,0-7.42c0-0.59,0.01-0.6,0.58-0.6c0.88-0.01,1.76-0.01,2.64,0
	c0.25,0,0.6-0.14,0.65,0.31c0,0.01,0.19,0.05,0.24,0.01c0.92-0.75,2.03-0.67,3.05-0.52c1.01,0.15,2.06,0.44,2.77,1.34
	c0.2,0.25,0.44,0.46,0.67,0.68c0.98,0.9,1.3,2.1,1.39,3.35c0.07,0.89,0.06,1.79-0.2,2.69c-0.44,1.5-1.29,2.61-2.58,3.49
	c-0.89,0.6-1.9,0.69-2.87,0.82c-0.68,0.09-1.46-0.12-2.12-0.47c-0.33-0.18-0.38-0.14-0.38,0.2c0.01,1.24,0.01,2.47,0,3.71
	c0,0.66-0.01,0.67-0.63,0.68c-0.92,0.01-1.84-0.01-2.76,0.01c-0.38,0.01-0.47-0.15-0.47-0.49C130.76,18.3,130.76,15.71,130.76,13.11
	z M134.6,11.03c0,0.4,0.02,0.8-0.01,1.19c-0.05,0.63,0.21,1.01,0.8,1.27c0.82,0.37,1.61,0.33,2.32-0.16
	c1.01-0.68,1.45-1.69,1.17-2.87c-0.18-0.78-0.49-1.6-1.39-1.87c-0.44-0.13-0.92-0.14-1.39-0.15c-0.99-0.01-1.5,0.52-1.51,1.5
	C134.6,10.31,134.6,10.67,134.6,11.03z"/>
<path class="st0" d="M21.84,8.57c0-2.63,0-5.26,0-7.89c0-0.6,0.01-0.61,0.57-0.61c0.92-0.01,1.84,0.02,2.76-0.01
	c0.45-0.02,0.53,0.16,0.53,0.56c-0.02,1.51,0,3.03-0.01,4.55c0,0.3-0.01,0.4,0.36,0.22c1.69-0.82,3.39-0.74,5.03,0.17
	c1.45,0.8,2.22,2.09,2.28,3.71c0.07,2.27,0.01,4.54,0.03,6.82c0,0.3,0.12,0.6,0.19,0.9c-0.35,0.04-0.7,0.11-1.04,0.1
	c-0.91-0.02-1.81-0.07-2.71-0.11c-0.02-0.87-0.04-1.74-0.05-2.62c-0.01-1.04,0.06-2.08-0.02-3.11c-0.07-0.92-0.22-1.85-1.02-2.52
	c-0.69-0.58-2.56-0.27-2.95,0.53c-0.1,0.2-0.07,0.46-0.07,0.69c0,2.15,0,4.31,0,6.46c0,0.66-0.01,0.67-0.63,0.67
	c-0.88,0.01-1.76,0.01-2.64,0c-0.56-0.01-0.58-0.02-0.58-0.6C21.83,13.83,21.84,11.2,21.84,8.57z"/>
<path class="st0" d="M128.13,11.18c0,1.75,0,3.51,0,5.26c0,0.61-0.01,0.62-0.56,0.63c-0.84,0.01-1.68,0.01-2.52,0
	c-0.18,0-0.47-0.07-0.5-0.17c-0.15-0.48-0.34-0.22-0.61-0.13c-0.65,0.22-1.35,0.56-1.99,0.5c-1.77-0.16-3.46-0.65-4.58-2.22
	c-1.09-1.53-1.49-3.29-1.22-5.1c0.32-2.12,1.5-3.76,3.48-4.66c1.43-0.65,2.93-0.7,4.4,0.03c0.18,0.09,0.46,0.37,0.55-0.13
	c0.01-0.06,0.28-0.1,0.43-0.1c0.88-0.01,1.76,0.01,2.64-0.01c0.36-0.01,0.49,0.12,0.48,0.48c-0.01,1.36-0.01,2.71-0.01,4.07
	C128.13,10.14,128.13,10.66,128.13,11.18z M124.52,11.08c0-0.4,0.04-0.8-0.01-1.19c-0.04-0.3-0.11-0.65-0.3-0.85
	c-0.26-0.26-0.63-0.52-0.98-0.56c-0.58-0.07-1.28-0.16-1.74,0.09c-1.08,0.59-1.69,1.54-1.51,2.88c0.14,1.03,1.04,2.07,2.08,2.24
	c0.61,0.1,1.24,0.07,1.79-0.36c0.55-0.43,0.79-0.96,0.68-1.65C124.49,11.48,124.52,11.28,124.52,11.08z"/>
<path class="st0" d="M77.16,11.8c-1.16,0-2.32-0.01-3.48,0c-0.53,0-0.55,0.07-0.35,0.52c0.87,2,3.45,1.65,4.36,0.34
	c0.36-0.52,0.42-0.48,0.88-0.17c0.63,0.44,1.3,0.84,1.95,1.26c0.39,0.26,0.45,0.48,0.23,0.9c-0.16,0.3-0.35,0.63-0.61,0.84
	c-1.04,0.83-2.14,1.54-3.54,1.58c-0.42,0.01-0.88,0.29-1.24,0.18c-0.43-0.13-0.84-0.12-1.26-0.21c-0.52-0.11-1.08-0.24-1.51-0.53
	c-1.33-0.87-2.56-1.9-2.85-3.55c-0.16-0.91-0.75-1.85-0.16-2.81c-0.19-0.97,0.39-1.72,0.75-2.53c0.51-1.15,1.55-1.76,2.59-2.27
	c1.14-0.56,2.43-0.7,3.68-0.49c2.15,0.37,3.81,1.45,4.51,3.65c0.1,0.33,0.22,0.67,0.23,1.01c0.03,0.71-0.01,1.43-0.03,2.14
	c-0.7,0.04-1.41,0.1-2.11,0.12C78.52,11.82,77.84,11.8,77.16,11.8z M75.32,9.4C75.32,9.4,75.32,9.4,75.32,9.4
	c0.63,0,1.26,0,1.9-0.01c0.27,0,0.33-0.16,0.23-0.39c-0.08-0.17-0.14-0.4-0.28-0.49c-1.09-0.72-2.42-0.85-3.29,0.09
	c-0.21,0.23-0.43,0.46-0.64,0.69c0.3,0.04,0.6,0.09,0.9,0.1C74.53,9.41,74.92,9.4,75.32,9.4z"/>
<path class="st0" d="M165.79,11.8c-1.2,0-2.4-0.01-3.59,0.01c-0.16,0-0.37,0.1-0.46,0.22c-0.06,0.08-0.01,0.32,0.07,0.43
	c0.6,0.78,1.36,1.33,2.39,1.23c0.83-0.08,1.62-0.36,2.05-1.16c0.17-0.32,0.3-0.27,0.53-0.12c0.81,0.52,1.64,1.02,2.44,1.57
	c0.12,0.08,0.17,0.46,0.09,0.6c-0.45,0.79-1.15,1.33-1.93,1.78c-0.76,0.43-1.53,0.68-2.42,0.74c-0.52,0.03-0.98,0.28-1.56,0.01
	c-0.42-0.2-0.97-0.06-1.48-0.26c-2.11-0.85-3.47-2.29-3.82-4.58c-0.56-1.03-0.17-2.12,0.07-3.07c0.29-1.13,0.85-2.28,1.88-3.03
	c1.56-1.14,3.33-1.55,5.21-1.28c1.19,0.17,2.28,0.78,3.17,1.57c0.75,0.67,1.06,1.69,1.42,2.62c0.05,0.14,0.03,0.31,0.02,0.47
	c-0.01,0.71-0.03,1.42-0.05,2.14c-0.7,0.04-1.41,0.09-2.11,0.11C167.07,11.82,166.43,11.8,165.79,11.8z M163.88,9.4
	C163.88,9.4,163.88,9.39,163.88,9.4c0.63-0.01,1.26,0,1.9-0.01c0.23,0,0.31-0.22,0.17-0.41c-1.01-1.43-3.11-1.38-4.08,0.15
	c-0.12,0.19-0.11,0.27,0.12,0.27C162.62,9.4,163.25,9.4,163.88,9.4z"/>
<path class="st0" d="M102.69,11.02c0-1.79,0.01-3.59-0.01-5.38c0-0.39,0.07-0.58,0.52-0.56c0.92,0.03,1.84,0.01,2.76,0.01
	c0.27,0,0.59-0.07,0.61,0.36c0.13-0.04,0.26-0.06,0.38-0.11c1.72-0.77,3.41-0.7,5.03,0.24c1.23,0.71,1.99,1.79,2.25,3.23
	c0.46,2.6,0.11,5.22,0.23,7.83c0.02,0.4-0.19,0.45-0.51,0.45c-0.96-0.01-1.92-0.02-2.88,0c-0.37,0.01-0.47-0.14-0.47-0.49
	c0.01-1.83-0.01-3.67,0.01-5.5c0.01-0.65-0.24-1.2-0.42-1.79c-0.16-0.51-0.57-0.69-0.93-0.8c-0.44-0.12-0.97-0.11-1.41,0.01
	c-1.13,0.3-1.31,0.6-1.31,1.85c0,2.03,0,4.07,0,6.1c0,0.6-0.01,0.61-0.57,0.61c-0.92,0.01-1.84-0.02-2.76,0.01
	c-0.45,0.02-0.53-0.16-0.53-0.56C102.7,14.69,102.69,12.85,102.69,11.02z"/>
<path class="st0" d="M96.5,4.76c1.48,0.04,2.7,0.53,3.62,1.7c0.18,0.23,0.22,0.39,0,0.6c-0.57,0.56-1.13,1.13-1.7,1.69
	c-0.19,0.19-0.34,0.26-0.54-0.06C97.7,8.43,97.4,8.2,97.1,8.05c-0.46-0.23-1.33-0.03-1.28,0.22c0.09,0.39,0.43,0.61,0.81,0.73
	c0.4,0.13,0.82,0.23,1.2,0.41c1.02,0.47,2.09,0.85,2.66,1.97c0.45,0.9,0.68,1.81,0.42,2.79c-0.36,1.34-0.73,1.84-1.83,2.54
	c-0.15,0.1-0.37,0.1-0.56,0.14c-0.92,0.21-1.79,0.75-2.8,0.25c-0.29-0.14-0.74,0.04-1.06-0.07c-1.16-0.41-2.15-1.08-2.8-2.18
	c-0.14-0.24-0.21-0.39,0.06-0.56c0.69-0.43,1.38-0.86,2.08-1.28c0.55-0.33,0.55-0.32,0.99,0.1c0.09,0.08,0.19,0.16,0.25,0.26
	c0.48,0.75,1.22,0.62,1.93,0.58c0.08,0,0.21-0.14,0.21-0.22c0.01-0.14-0.01-0.36-0.1-0.42c-0.29-0.19-0.61-0.33-0.93-0.48
	c-0.6-0.26-1.2-0.53-1.81-0.77c-1.82-0.71-2.66-3.08-1.95-4.79c0.43-1.05,1.22-1.72,2.2-2.14C95.32,4.89,95.93,4.87,96.5,4.76z"/>
<path class="st0" d="M83.25,10.96c0-1.8,0.01-3.59-0.01-5.39c0-0.35,0.1-0.5,0.47-0.49c0.96,0.02,1.92,0.01,2.88,0.01
	c0.24,0,0.5-0.04,0.51,0.32c0.12-0.02,0.25-0.01,0.35-0.06c0.83-0.39,1.69-0.57,2.61-0.51c0.71,0.05,0.86,0.15,0.87,0.81
	c0.02,0.96,0,1.92,0,2.87c0,0.28-0.06,0.45-0.41,0.34c-0.92-0.3-1.84-0.3-2.75,0.05c-0.65,0.25-0.67,0.23-0.67,0.89
	c-0.01,2.04,0,4.07,0,6.11c0,0.24-0.02,0.48,0,0.72c0.04,0.4-0.19,0.45-0.51,0.45c-0.96-0.01-1.92-0.02-2.88,0
	c-0.37,0.01-0.47-0.15-0.47-0.49c0.01-1.68,0.01-3.35,0.01-5.03C83.25,11.36,83.25,11.16,83.25,10.96z"/>
<path class="st0" d="M171.78,11.08c0-1.84,0.01-3.67-0.01-5.51c0-0.35,0.09-0.5,0.47-0.49c0.96,0.02,1.92,0.01,2.88,0.01
	c0.24,0,0.5-0.04,0.51,0.32c0.12-0.02,0.25-0.01,0.35-0.05c0.83-0.39,1.69-0.57,2.61-0.51c0.71,0.05,0.86,0.15,0.87,0.81
	c0.02,0.96,0.01,1.92,0,2.87c0,0.36-0.23,0.55-0.54,0.38c-0.72-0.41-1.48-0.21-2.22-0.2c-0.78,0.01-1.08,0.42-1.09,1.21
	c0,2.16,0,4.31,0,6.47c0,0.67-0.01,0.68-0.62,0.68c-0.92,0.01-1.84-0.01-2.76,0.01c-0.37,0.01-0.47-0.14-0.47-0.49
	C171.79,14.75,171.78,12.91,171.78,11.08z"/>
<path class="st0" d="M39.6,11.16c0,1.79-0.01,3.59,0.01,5.38c0.01,0.43-0.15,0.54-0.55,0.53c-0.92-0.03-1.84-0.02-2.76,0
	c-0.39,0.01-0.58-0.08-0.56-0.53c0.03-0.96,0.01-1.91,0.01-2.87c0-2.67,0-5.34,0-8.01c0-0.57,0.02-0.59,0.6-0.58
	c1.06,0.02,2.13,0.07,3.19,0.11c0.02,0.99,0.04,1.98,0.05,2.97C39.61,9.17,39.6,10.17,39.6,11.16z"/>
<path class="st0" d="M37.75,3.66c-0.36,0-0.72-0.03-1.07,0.01c-0.58,0.07-0.84-0.22-1.04-0.72c-0.38-0.96,0.12-2.38,1.06-2.75
	c0.71-0.27,1.47-0.26,2.17-0.01c0.81,0.29,1.39,1.56,1.15,2.4c-0.05,0.18-0.14,0.36-0.19,0.54c-0.09,0.35-0.29,0.53-0.67,0.53
	C38.7,3.65,38.22,3.66,37.75,3.66z"/>
</svg>
